<svg width="24" height="24" viewBox="0 0 24 24" fill="none" xmlns="http://www.w3.org/2000/svg">
<path d="M23.9999 12.2762C23.9999 11.4605 23.9325 10.6404 23.7885 9.83789H12.2417V14.4587H18.854C18.5796 15.949 17.698 17.2674 16.407 18.1051V21.1034H20.3519C22.6685 19.0134 23.9999 15.927 23.9999 12.2762Z" fill="#4285F4"/>
<path d="M12.2417 24C15.5433 24 18.3277 22.9374 20.3564 21.1032L16.4115 18.1049C15.3139 18.8369 13.897 19.2513 12.2462 19.2513C9.05248 19.2513 6.34458 17.1393 5.37297 14.2998H1.30212V17.3906C3.38028 21.4427 7.61306 24 12.2417 24Z" fill="#34A853"/>
<path d="M5.36857 14.2997C4.85578 12.8094 4.85578 11.1956 5.36857 9.70534V6.6145H1.30222C-0.434074 10.0052 -0.434074 13.9999 1.30222 17.3905L5.36857 14.2997Z" fill="#FBBC04"/>
<path d="M12.2417 4.7495C13.987 4.72304 15.6738 5.36679 16.9378 6.54845L20.4329 3.12251C18.2198 1.08547 15.2824 -0.0344648 12.2417 0.000808639C7.61306 0.000808639 3.38028 2.55814 1.30212 6.61458L5.36847 9.70542C6.33558 6.8615 9.04798 4.7495 12.2417 4.7495Z" fill="#EA4335"/>
</svg>
