<svg
    width="20"
    height="20"
    viewBox="0 0 20 20"
    fill="none"
    xmlns="http://www.w3.org/2000/svg"
>
    <circle
        cx="10"
        cy="10"
        r="9"
        fill="#FBFCFF"
        stroke="#E8E7EF"
        stroke-width="2"
    />
    <path
        fill-rule="evenodd"
        clip-rule="evenodd"
        d="M8.54611 8.39557C8.54066 8.4495 8.53741 8.50388 8.53741 8.55825C8.53549 8.9268 8.18808 9.1987 7.76775 9.20853C7.35509 9.22491 6.99809 8.89568 7.00001 8.55334C7.00385 8.1373 7.12285 7.73927 7.34165 7.36908C7.55278 7.01037 7.87715 6.72045 8.2495 6.47966C8.547 6.28966 8.90016 6.14879 9.261 6.07345C9.70821 5.98008 10.1497 5.98008 10.6007 6.04888C11.3934 6.17009 12.0901 6.6107 12.5277 7.1758C12.9903 7.77366 13.117 8.56153 12.8905 9.24784C12.7638 9.63277 12.5297 9.97838 12.2206 10.2781C12.069 10.4239 11.8905 10.5451 11.7063 10.6598C11.639 10.7019 11.568 10.7393 11.497 10.7767C11.4412 10.8061 11.3854 10.8355 11.3314 10.8672C11.2394 10.9348 11.1537 11.0079 11.0751 11.0863C10.9999 11.1774 10.9341 11.2728 10.8778 11.3735C10.835 11.4746 10.8017 11.5787 10.7788 11.6849C10.773 11.7413 10.7696 11.798 10.7696 11.8539C10.7677 12.2208 10.4203 12.4927 10.0019 12.5091C9.58921 12.5254 9.23221 12.1962 9.23413 11.8539C9.23797 11.3657 9.40111 10.8596 9.72548 10.4534C9.88287 10.2536 10.0652 10.0636 10.2859 9.91122L10.2913 9.90758C10.4201 9.8203 10.5509 9.73167 10.6928 9.65897C10.6975 9.65655 10.7022 9.65413 10.7068 9.65171C10.7743 9.61674 10.8408 9.58228 10.905 9.54456C10.9968 9.47709 11.0824 9.40404 11.1609 9.32581C11.236 9.23471 11.3018 9.13936 11.3582 9.03865C11.4014 8.93661 11.4349 8.8315 11.4578 8.72418C11.4685 8.61522 11.4685 8.50626 11.458 8.3973C11.4348 8.28905 11.4011 8.1829 11.3574 8.07886C11.3003 7.97716 11.2335 7.88017 11.1576 7.7884C11.0773 7.70842 10.9902 7.63489 10.8966 7.56696C10.7909 7.5034 10.6794 7.44839 10.5626 7.40094C10.4416 7.36382 10.3168 7.33519 10.19 7.31552C10.0648 7.30668 9.93915 7.30668 9.81398 7.3155C9.68689 7.33527 9.56226 7.36407 9.44012 7.40145C9.32096 7.4502 9.20731 7.5072 9.09977 7.57196C9.00605 7.64044 8.91989 7.71483 8.84029 7.7947C8.76582 7.88486 8.70135 7.98002 8.64575 8.07969C8.60254 8.18236 8.56915 8.28809 8.54611 8.39557ZM8.68328 7.99643C8.68194 7.99924 8.6806 8.00204 8.67925 8.00485C8.68059 8.00204 8.68193 7.99923 8.68328 7.99643ZM9.91358 7.30193C9.90607 7.30284 9.89855 7.30376 9.891 7.30467C9.89852 7.30372 9.90604 7.30281 9.91358 7.30193ZM9.75258 7.32054C9.73837 7.32204 9.72421 7.32349 9.71013 7.32486C9.72427 7.32331 9.73842 7.32187 9.75258 7.32054ZM10.6602 7.43297C10.6569 7.43182 10.6536 7.43068 10.6503 7.42953C10.6536 7.43067 10.6569 7.43181 10.6602 7.43297ZM11.474 8.48291C11.4729 8.4765 11.4719 8.47007 11.4708 8.46363C11.4719 8.47005 11.473 8.47647 11.474 8.48291ZM11.4518 8.34288C11.4502 8.33164 11.4486 8.32043 11.4471 8.30928C11.4488 8.32048 11.4504 8.33168 11.4518 8.34288ZM11.3166 9.12991C11.32 9.12283 11.3234 9.11575 11.3268 9.10867C11.3235 9.11577 11.3201 9.12285 11.3166 9.12991ZM10.9193 11.2822C10.9159 11.2893 10.9125 11.2964 10.9091 11.3034C10.9125 11.2963 10.9159 11.2893 10.9193 11.2822ZM10.8957 14.1739V14.2656C10.8957 14.3977 10.8557 14.5205 10.7732 14.6361L10.6329 14.7846C10.5216 14.8763 10.3902 14.9386 10.2387 14.9735C10.1608 14.9808 10.0806 14.99 10.0026 14.9992C9.88015 15.0047 9.76657 14.9827 9.65966 14.9368C9.5483 14.9075 9.45253 14.8561 9.37236 14.7846C9.2855 14.7186 9.22313 14.6397 9.1875 14.548C9.13182 14.46 9.10732 14.3665 9.11178 14.2656V14.1739C9.114 14.0419 9.15409 13.9172 9.23427 13.8035L9.37458 13.655C9.48594 13.5633 9.61734 13.5009 9.76879 13.4661C9.84674 13.4587 9.92692 13.4496 10.0049 13.4404C10.1274 13.4349 10.241 13.4569 10.3479 13.5028C10.4592 13.5321 10.555 13.5834 10.6352 13.655C10.722 13.721 10.7844 13.7998 10.82 13.8915C10.8757 13.9796 10.9002 14.0731 10.8957 14.1739Z"
        fill="#AAA8B3"
    />
</svg>
