<svg width="13" height="24" viewBox="0 0 13 24" fill="none" xmlns="http://www.w3.org/2000/svg">
<path fill-rule="evenodd" clip-rule="evenodd" d="M13 16.32C13 14.2339 11.6059 12.3293 9.60369 11.7223L4.07601 10.0584C3.18872 9.77221 2.5 8.81068 2.5 7.725C2.5 6.30643 3.50997 5.28 4.67188 5.28H8.09375C9.03588 5.28 9.89404 5.6321 10.5527 6.26441L10.5778 6.28853L10.6062 6.309C10.7613 6.42064 10.9578 6.50625 11.1816 6.50625C11.4108 6.50625 11.613 6.41619 11.7662 6.27311L12.3074 5.7969C12.7225 5.47859 12.7283 4.92516 12.3849 4.5955L12.3769 4.58813C11.2147 3.52093 9.68754 2.88 8.09375 2.88H7.75V0.84C7.75 0.593889 7.62685 0.387955 7.48637 0.253089C7.34588 0.118223 7.13137 0 6.875 0H6.125C5.57442 0 5.25 0.435072 5.25 0.84V2.88H4.67188C2.00757 2.88 0 5.11965 0 7.725C0 9.80267 1.33935 11.7133 3.34943 12.3227L8.87715 13.9867C9.78014 14.2777 10.5 15.2066 10.5 16.32C10.5 17.7226 9.45793 18.72 8.32812 18.72H4.85938C3.94548 18.72 3.0464 18.4007 2.40043 17.7806C2.07104 17.4644 1.53482 17.4583 1.19743 17.7622L0.631234 18.2152L0.615197 18.2306C0.45467 18.3847 0.358899 18.5987 0.346473 18.8134C0.334011 19.0287 0.406724 19.2861 0.635373 19.4687C1.76157 20.5394 3.28749 21.12 4.85938 21.12H5.25V23.16C5.25 23.3687 5.3172 23.5921 5.49606 23.7638C5.67491 23.9355 5.90756 24 6.125 24H6.875C7.2968 24 7.75 23.6886 7.75 23.16V21.12H8.32812C10.9356 21.12 13 18.9357 13 16.32ZM2 7.725C2 8.985 2.79688 10.155 3.92188 10.515L9.45312 12.18C11.2344 12.72 12.5 14.43 12.5 16.32C12.5 14.43 11.2344 12.72 9.45314 12.18L3.92189 10.515C2.79689 10.155 2.00001 8.985 2.00001 7.725C2.00001 6.79003 2.39035 5.95998 3.00883 5.42517C2.39035 5.95998 2 6.79003 2 7.725ZM4.1264 4.85924C4.302 4.82039 4.48438 4.8 4.67188 4.8H8.09375C8.09375 4.8 8.09376 4.8 8.09376 4.8H4.67189C4.48438 4.8 4.30201 4.82039 4.1264 4.85924ZM9.25967 4.96611C9.8772 5.14805 10.4375 5.475 10.9062 5.925C10.9529 5.95857 10.9995 5.98379 11.0454 6.00066C10.9995 5.98379 10.9529 5.95856 10.9063 5.925C10.4375 5.47499 9.8772 5.14805 9.25967 4.96611ZM11.9844 5.43L11.9844 5.43C12.1719 5.295 12.1719 5.07 12.0313 4.935C11.428 4.38102 10.7219 3.95386 9.96244 3.68505C10.7219 3.95386 11.428 4.38103 12.0312 4.935C12.1719 5.07 12.1719 5.295 11.9844 5.43ZM8.36559 3.36681C8.27521 3.36229 8.18458 3.36 8.09376 3.36H7.25001V0.839996C7.25001 0.659996 7.06251 0.479996 6.87501 0.479996H6.12501C6.11361 0.479996 6.10243 0.480425 6.09148 0.481256C6.10243 0.480426 6.1136 0.48 6.125 0.48H6.875C7.0625 0.48 7.25 0.66 7.25 0.84V3.36H8.09375C8.18457 3.36 8.27521 3.36229 8.36559 3.36681ZM5.90335 0.546445C5.80493 0.615 5.75 0.7275 5.75 0.84V3.36H4.67189C4.37456 3.36 4.08553 3.39186 3.80748 3.45238C4.08553 3.39186 4.37455 3.36 4.67188 3.36H5.75V3.36H5.75001V0.839996C5.75001 0.727499 5.80494 0.615001 5.90335 0.546445ZM2.3219 4.11226C1.21412 4.90195 0.50001 6.23438 0.50001 7.725C0.50001 9.615 1.71876 11.325 3.50001 11.865L9.03126 13.53C10.1563 13.89 11 15.015 11 16.32C11 15.015 10.1562 13.89 9.03125 13.53L3.5 11.865C1.71875 11.325 0.5 9.615 0.5 7.725C0.5 6.23438 1.21411 4.90195 2.3219 4.11226ZM4.85938 20.64H5.75V23.16L5.75001 20.64L4.85938 20.64Z" fill="#0047FF"/>
</svg>
