<svg
    width="24"
    height="24"
    viewBox="0 0 24 24"
    fill="none"
    xmlns="http://www.w3.org/2000/svg"
>
    <path
        fill-rule="evenodd"
        clip-rule="evenodd"
        d="M23.2391 10.3605L13.654 0.793447C13.4316 0.571488 13.128 0.377137 12.8175 0.237981C12.509 0.0997412 12.158 0 11.8353 0H2.56816C1.12229 0 0 1.17601 0 2.56331V11.8583C0 12.1706 0.0834169 12.5157 0.210454 12.8263C0.337463 13.1369 0.521503 13.4459 0.749521 13.6735L10.3347 23.2406C11.3437 24.2476 13.0004 24.2598 13.9755 23.237L23.2355 13.9945C24.2603 13.0212 24.2481 11.3676 23.2391 10.3605ZM13.0427 23.4296C13.2837 23.3224 13.5069 23.1682 13.6978 22.967L22.965 13.7173C23.8281 12.9012 23.8281 11.4956 22.965 10.6341L13.3799 1.06704C13.0164 0.704304 12.335 0.386914 11.8353 0.386914H2.56816C2.47833 0.386914 2.38997 0.392264 2.30333 0.402644C2.38998 0.39226 2.47836 0.386908 2.56821 0.386908H11.8354C12.3351 0.386908 13.0165 0.704298 13.3799 1.06703L22.9651 10.6341C23.8282 11.4956 23.8282 12.9012 22.9651 13.7173L13.6979 22.967C13.5069 23.1682 13.2837 23.3224 13.0427 23.4296ZM11.9596 23.603C11.4684 23.5559 10.9864 23.3439 10.6088 22.967L1.02363 13.3999C0.66021 13.0372 0.387646 12.3571 0.387646 11.8583V2.56331C0.387646 1.47076 1.20701 0.533993 2.30333 0.402644C1.20703 0.534015 0.387695 1.47077 0.387695 2.5633V11.8583C0.387695 12.3571 0.660259 13.0372 1.02368 13.3999L10.6088 22.967C10.9864 23.3439 11.4684 23.5559 11.9596 23.603ZM21.9656 11.6769C22.2382 11.949 22.2382 12.4024 21.9656 12.7198L12.6984 21.9695C12.6189 22.0375 12.5309 22.0885 12.4394 22.1225C12.5309 22.0885 12.619 22.0375 12.6985 21.9695L21.9657 12.7198C22.2382 12.4024 22.2382 11.949 21.9657 11.6769L12.3351 2.06454C12.1988 1.92852 12.0171 1.83784 11.8354 1.83784H2.56821C2.54025 1.83784 2.51272 1.83953 2.48568 1.84281C2.11733 1.88742 1.84132 2.22536 1.84132 2.56331V11.8583C1.84132 11.9943 1.93217 12.221 2.02303 12.3571L11.6536 21.9695C11.7578 22.0734 11.8885 22.1377 12.0281 22.1622C11.8886 22.1377 11.7578 22.0734 11.6537 21.9695L2.02308 12.3571C1.93222 12.221 1.84137 11.9943 1.84137 11.8583V2.5633C1.84137 2.22537 2.11736 1.88744 2.48568 1.84281C2.5127 1.83954 2.54022 1.83784 2.56816 1.83784H11.8353C12.017 1.83784 12.1987 1.92852 12.335 2.06455L21.9656 11.6769ZM21.6795 12.4581L12.4363 21.6839C12.2532 21.8331 12.0364 21.8043 11.9277 21.6959L2.32816 12.1144C2.30578 12.0761 2.28119 12.0254 2.26107 11.9718C2.24874 11.939 2.23988 11.9099 2.23444 11.8866C2.23036 11.8691 2.22931 11.8597 2.22904 11.8573C2.229 11.8569 2.22898 11.8567 2.22897 11.8567L2.22897 2.56331C2.22897 2.39858 2.38879 2.22476 2.56816 2.22476H11.8353C11.891 2.22476 11.979 2.25642 12.0609 2.33814L21.6915 11.9505C21.8002 12.059 21.829 12.2754 21.6795 12.4581ZM6.92918 6.39617C7.21479 6.39617 7.45008 6.63102 7.45008 6.91609C7.45008 7.23381 7.22772 7.436 6.92918 7.436C6.74471 7.436 6.6211 7.37632 6.54459 7.29995C6.46808 7.22358 6.40828 7.10021 6.40828 6.91609C6.40828 6.61811 6.61085 6.39617 6.92918 6.39617ZM6.92918 4.35278C5.48331 4.35278 4.36102 5.52879 4.36102 6.91609C4.36102 8.35399 5.48855 9.47939 6.92918 9.47939C8.3191 9.47939 9.49733 8.35922 9.49733 6.91609C9.49733 5.52352 8.32438 4.35278 6.92918 4.35278ZM6.92918 6.00926C7.42888 6.00926 7.83772 6.41733 7.83772 6.91609C7.83772 7.39217 7.5247 7.7294 7.11169 7.80627C7.52473 7.72942 7.83777 7.39219 7.83777 6.91608C7.83777 6.41733 7.42893 6.00925 6.92923 6.00925C6.90994 6.00925 6.89088 6.00977 6.87206 6.01077C6.89086 6.00977 6.90991 6.00926 6.92918 6.00926ZM6.73363 6.02777C6.29887 6.11269 6.02063 6.47968 6.02063 6.91609C6.02063 7.46019 6.38405 7.82292 6.92918 7.82292C6.94381 7.82292 6.95836 7.82261 6.97282 7.82199C6.95837 7.8226 6.94384 7.82291 6.92923 7.82291C6.3841 7.82291 6.02068 7.46018 6.02068 6.91608C6.02068 6.47969 6.2989 6.11271 6.73363 6.02777ZM6.67129 4.75461C5.57149 4.88283 4.74867 5.82124 4.74867 6.91609C4.74867 8.14031 5.70264 9.09248 6.92918 9.09248C6.93841 9.09248 6.94762 9.09242 6.95683 9.0923C6.94764 9.09242 6.93844 9.09247 6.92923 9.09247C5.70269 9.09247 4.74872 8.1403 4.74872 6.91608C4.74872 5.82125 5.57151 4.88285 6.67129 4.75461ZM6.67129 4.75461C6.7557 4.74476 6.84175 4.7397 6.92918 4.7397C8.11029 4.7397 9.10969 5.73721 9.10969 6.91609C9.10969 7.98728 8.34452 8.85018 7.36198 9.04917C8.34455 8.8502 9.10974 7.98729 9.10974 6.91608C9.10974 5.7372 8.11034 4.73969 6.92923 4.73969C6.84178 4.73969 6.75572 4.74476 6.67129 4.75461Z"
        fill="#0047FF"
    />
</svg>
